<svg width="383" height="142" viewBox="0 0 383 142" fill="none" xmlns="http://www.w3.org/2000/svg">
<path d="M307.84 106.864C301.5 106.864 296.667 105.08 293.338 101.514C290.01 97.8681 288.346 92.6768 288.346 85.9401V22.4561H301.421V86.8911C301.421 89.7443 301.976 91.805 303.085 93.0731C304.274 94.3412 305.938 94.9752 308.077 94.9752C310.217 94.9752 311.841 94.3412 312.951 93.0731C314.139 91.805 314.734 89.7443 314.734 86.8911V22.4561H327.333V85.9401C327.333 92.6768 325.669 97.8681 322.341 101.514C319.013 105.08 314.179 106.864 307.84 106.864ZM336.644 22.4561H356.375C363.11 22.4561 368.023 24.0412 371.114 27.2115C374.204 30.3024 375.749 35.0975 375.749 41.5964V44.9252C375.749 49.205 375.036 52.6922 373.61 55.3869C372.263 58.0816 370.163 60.0234 367.31 61.2122V61.45C373.808 63.6692 377.057 69.4549 377.057 78.807V85.9401C377.057 92.3598 375.353 97.2737 371.946 100.682C368.618 104.01 363.705 105.675 357.207 105.675H336.644V22.4561ZM354.83 56.338C357.445 56.338 359.386 55.6643 360.654 54.317C362.001 52.9696 362.675 50.7108 362.675 47.5406V42.9042C362.675 39.8924 362.12 37.7129 361.011 36.3655C359.98 35.0182 358.316 34.3445 356.018 34.3445H349.719V56.338H354.83ZM357.207 93.7864C359.505 93.7864 361.209 93.192 362.318 92.0031C363.427 90.735 363.982 88.5951 363.982 85.5834V78.3315C363.982 74.5272 363.309 71.9118 361.961 70.4852C360.694 68.9793 358.554 68.2264 355.543 68.2264H349.719V93.7864H357.207Z" fill="#FF7A00"/>
<path d="M1.78296 22.4558H14.3823L20.2066 86.4153H20.4443L26.6251 22.4558H40.8886L47.0694 86.4153H47.3071L53.1314 22.4558H64.4233L55.9841 105.674H39.7L33.7569 49.5613H33.5191L27.576 105.674H10.2222L1.78296 22.4558ZM79.5151 22.4558H97.2256L110.776 105.674H97.701L95.3238 89.1496V89.3874H80.466L78.0888 105.674H65.9649L79.5151 22.4558ZM93.7786 78.0934L87.9543 36.9596H87.7166L82.0112 78.0934H93.7786ZM123.668 70.2471L107.86 22.4558H121.767L130.681 53.0089H130.919L139.834 22.4558H152.552L136.743 70.2471V105.674H123.668V70.2471ZM173.582 106.863C167.243 106.863 162.449 105.08 159.2 101.514C155.951 97.8677 154.327 92.6765 154.327 85.9397V81.1844H166.688V86.8908C166.688 92.2802 168.947 94.9749 173.463 94.9749C175.682 94.9749 177.346 94.3409 178.456 93.0728C179.644 91.7254 180.239 89.5855 180.239 86.653C180.239 83.1658 179.446 80.1144 177.861 77.499C176.276 74.8043 173.345 71.5944 169.065 67.8694C163.677 63.1141 159.913 58.8342 157.774 55.03C155.634 51.1464 154.564 46.7874 154.564 41.9528C154.564 35.3745 156.228 30.3021 159.557 26.7356C162.885 23.0899 167.718 21.267 174.058 21.267C180.318 21.267 185.033 23.0899 188.202 26.7356C191.451 30.3021 193.076 35.4538 193.076 42.1905V45.6381H180.714V41.3583C180.714 38.5051 180.159 36.4445 179.05 35.1764C177.941 33.829 176.316 33.1554 174.177 33.1554C169.818 33.1554 167.639 35.8104 167.639 41.1206C167.639 44.1323 168.432 46.9459 170.016 49.5613C171.68 52.1768 174.652 55.347 178.931 59.072C184.399 63.8274 188.163 68.1468 190.223 72.0303C192.283 75.9139 193.313 80.4711 193.313 85.702C193.313 92.518 191.61 97.7489 188.202 101.395C184.874 105.04 180.001 106.863 173.582 106.863Z" fill="white"/>
<path d="M268.8 109.482L277.699 109.427L277.411 62.7954L277.122 16.1637L268.223 16.2188L268.511 62.8502L268.8 109.482Z" fill="#DFE7F4"/>
<path d="M215.118 63.1804L215.406 109.812L224.305 109.757L224.016 63.1253L223.728 16.4939L214.829 16.5489L215.118 63.1804Z" fill="#DFE7F4"/>
<path d="M215.117 63.1804L214.829 16.5489L223.728 16.4939L224.016 63.1253L215.117 63.1804Z" fill="#C7CFE1"/>
<path d="M268.511 62.8502L268.223 16.2188L277.122 16.1637L277.41 62.7954L268.511 62.8502Z" fill="#C7CFE1"/>
<path d="M224.016 63.1256L224.287 106.855L268.782 106.58L268.511 62.8505L268.241 19.1212L223.746 19.3963L224.016 63.1256Z" fill="#FF641A"/>
<path d="M224.016 63.1253L223.746 19.3963L268.241 19.1212L268.511 62.8502L224.016 63.1253Z" fill="#F03800"/>
<path d="M266.593 112.398L279.941 112.315L279.635 62.7815L279.329 13.2476L265.981 13.3301L266.287 62.8641L266.593 112.398ZM275.395 96.67L275.456 106.538L271.007 106.566L270.945 96.6977L275.395 96.67ZM275.299 81.1906L275.359 90.8655L270.91 90.8929L270.85 81.2184L275.299 81.1906ZM275.204 65.7113L275.263 75.3862L270.814 75.4136L270.754 65.7391L275.204 65.7113ZM270.527 28.9755L270.466 19.1074L274.915 19.0799L274.977 28.948L270.527 28.9755ZM270.623 44.4549L270.563 34.7801L275.013 34.7527L275.072 44.4272L270.623 44.4549ZM270.718 59.9342L270.659 50.2597L275.108 50.232L275.168 59.9068L270.718 59.9342Z" fill="#404A80"/>
<path d="M212.895 63.1943L213.201 112.728L226.55 112.646L226.244 63.1118L225.938 13.5778L212.589 13.6603L212.895 63.1943ZM222.003 97.0002L222.064 106.868L217.615 106.896L217.554 97.028L222.003 97.0002ZM221.908 81.5209L221.968 91.1954L217.518 91.2231L217.458 81.5483L221.908 81.5209ZM221.812 66.0416L221.872 75.7161L217.423 75.7438L217.363 66.069L221.812 66.0416ZM221.716 50.5623L221.776 60.2367L217.327 60.2645L217.267 50.5897L221.716 50.5623ZM221.621 35.0826L221.681 44.7574L217.231 44.7848L217.171 35.1103L221.621 35.0826ZM221.524 19.41L221.585 29.2973L217.136 29.3248L217.075 19.4375L221.524 19.41Z" fill="#404A80"/>
<path d="M221.714 50.5623L221.774 60.2367L217.324 60.2642L217.264 50.5897L221.714 50.5623ZM221.618 35.0826L221.678 44.7574L217.229 44.7848L217.169 35.11L221.618 35.0826ZM212.893 63.1943L226.241 63.1118L225.935 13.5777L212.586 13.6603L212.893 63.1943ZM221.522 19.41L221.583 29.2972L217.133 29.3248L217.072 19.4375L221.522 19.41Z" fill="#283366"/>
<path d="M265.981 13.3301L266.287 62.8641L279.635 62.7815L279.329 13.2476L265.981 13.3301ZM275.108 50.232L275.168 59.9065L270.718 59.9343L270.659 50.2594L275.108 50.232ZM275.013 34.7527L275.072 44.4272L270.623 44.4549L270.563 34.7801L275.013 34.7527ZM274.915 19.0798L274.977 28.9479L270.527 28.9754L270.466 19.1073L274.915 19.0798Z" fill="#283366"/>
<path d="M237.658 63.0411L233.263 71.7757L259.373 71.6143L254.87 62.9347L246.16 46.1461L237.658 63.0411Z" fill="#F0F7FF"/>
<path d="M237.658 63.0411L254.87 62.9347L246.16 46.1461L237.658 63.0411Z" fill="#DFE7F4"/>
</svg>
