<svg width="25" height="25" viewBox="0 0 25 25" fill="none" xmlns="http://www.w3.org/2000/svg">
<g clip-path="url(#clip0)">
<path d="M24.7386 11.8682L22.9537 10.0833L13.1318 0.261431C12.7832 -0.0871642 12.218 -0.0871642 11.8693 0.261431L2.04742 10.0833L0.261647 11.8691C-0.0809322 12.2238 -0.0711488 12.7891 0.283568 13.1316C0.6296 13.4658 1.17816 13.4658 1.52419 13.1316L1.78489 12.8691V24.1071C1.78489 24.6002 2.18465 25 2.6778 25H22.3215C22.8147 25 23.2144 24.6002 23.2144 24.1071V12.8691L23.476 13.1307C23.8307 13.4733 24.396 13.4635 24.7386 13.1088C25.0728 12.7628 25.0728 12.2142 24.7386 11.8682ZM15.1784 23.2142H9.821V16.071H15.1784V23.2142ZM21.4286 23.2142H16.9641V15.1782C16.9641 14.685 16.5644 14.2852 16.0712 14.2852H8.92809C8.43494 14.2852 8.03518 14.685 8.03518 15.1782V23.2142H3.57071V11.0833L12.4996 2.15435L21.4286 11.0833V23.2142Z" fill="white"/>
</g>
<defs>
<clipPath id="clip0">
<rect width="25" height="25" fill="white"/>
</clipPath>
</defs>
</svg>
